<svg width="160" height="160" viewBox="0 0 160 160" fill="none" xmlns="http://www.w3.org/2000/svg">
  <rect width="160" height="160" rx="36" fill="#1E293B"/>
  <rect x="20" y="20" width="120" height="120" rx="26" fill="#312E81"/>
  <path d="M52 108V52H77.8C84.8667 52 90.3333 53.8667 94.2 57.6C98.0667 61.3333 100 66.2 100 72.2C100 78.2 98.0667 83.0667 94.2 86.8C90.3333 90.5333 84.8667 92.4 77.8 92.4H63.8V108H52ZM63.8 82.8H76.4C80 82.8 82.7333 81.9 84.6 80.1C86.5333 78.3 87.5 75.6667 87.5 72.2C87.5 68.7333 86.5333 66.1 84.6 64.3C82.7333 62.5 80 61.6 76.4 61.6H63.8V82.8Z" fill="white"/>
</svg>
